<mxfile host="app.diagrams.net" agent="Mozilla/5.0 (Windows NT 10.0; Win64; x64) AppleWebKit/537.36 (KHTML, like Gecko) Chrome/126.0.0.0 Safari/537.36 OPR/112.0.0.0" version="24.7.16">
  <diagram name="PÃ¡gina-1" id="sg6oOaK24rhWpSF96cKm">
    <mxGraphModel dx="696" dy="395" grid="1" gridSize="10" guides="1" tooltips="1" connect="1" arrows="1" fold="1" page="1" pageScale="1" pageWidth="827" pageHeight="1169" math="0" shadow="0">
      <root>
        <mxCell id="0" />
        <mxCell id="1" parent="0" />
        <mxCell id="tDGWchpxEec9PxwqLPdq-4" value="" style="edgeStyle=orthogonalEdgeStyle;rounded=0;orthogonalLoop=1;jettySize=auto;html=1;endArrow=ERmandOne;endFill=0;startArrow=ERmany;startFill=0;" edge="1" parent="1" source="tDGWchpxEec9PxwqLPdq-1" target="tDGWchpxEec9PxwqLPdq-2">
          <mxGeometry relative="1" as="geometry" />
        </mxCell>
        <mxCell id="tDGWchpxEec9PxwqLPdq-1" value="Cliente" style="rounded=0;whiteSpace=wrap;html=1;" vertex="1" parent="1">
          <mxGeometry x="180" y="120" width="160" height="90" as="geometry" />
        </mxCell>
        <mxCell id="tDGWchpxEec9PxwqLPdq-2" value="Lista" style="rounded=0;whiteSpace=wrap;html=1;" vertex="1" parent="1">
          <mxGeometry x="440" y="120" width="160" height="90" as="geometry" />
        </mxCell>
        <mxCell id="tDGWchpxEec9PxwqLPdq-7" style="edgeStyle=orthogonalEdgeStyle;rounded=0;orthogonalLoop=1;jettySize=auto;html=1;exitX=0.5;exitY=0;exitDx=0;exitDy=0;entryX=0.5;entryY=1;entryDx=0;entryDy=0;startArrow=ERmandOne;startFill=0;endArrow=ERmany;endFill=0;" edge="1" parent="1" source="tDGWchpxEec9PxwqLPdq-6" target="tDGWchpxEec9PxwqLPdq-1">
          <mxGeometry relative="1" as="geometry">
            <Array as="points" />
          </mxGeometry>
        </mxCell>
        <mxCell id="tDGWchpxEec9PxwqLPdq-6" value="ADM" style="rounded=0;whiteSpace=wrap;html=1;" vertex="1" parent="1">
          <mxGeometry x="180" y="350" width="160" height="90" as="geometry" />
        </mxCell>
        <mxCell id="tDGWchpxEec9PxwqLPdq-9" style="edgeStyle=orthogonalEdgeStyle;rounded=0;orthogonalLoop=1;jettySize=auto;html=1;exitX=0.5;exitY=0;exitDx=0;exitDy=0;entryX=0.5;entryY=1;entryDx=0;entryDy=0;startArrow=ERmandOne;startFill=0;endArrow=ERmany;endFill=0;" edge="1" parent="1" source="tDGWchpxEec9PxwqLPdq-8" target="tDGWchpxEec9PxwqLPdq-2">
          <mxGeometry relative="1" as="geometry" />
        </mxCell>
        <mxCell id="tDGWchpxEec9PxwqLPdq-8" value="Fornecedor" style="rounded=0;whiteSpace=wrap;html=1;" vertex="1" parent="1">
          <mxGeometry x="440" y="350" width="160" height="90" as="geometry" />
        </mxCell>
      </root>
    </mxGraphModel>
  </diagram>
</mxfile>
